# Blender 3.3.1
# www.blender.org
mtllib barrel.mtl
o Cylinder
v 0.000000 -1.000000 -1.000000
v 0.000000 1.000000 -1.000000
v 0.382683 -1.000000 -0.923880
v 0.382683 1.000000 -0.923880
v 0.707107 -1.000000 -0.707107
v 0.707107 1.000000 -0.707107
v 0.923880 -1.000000 -0.382683
v 0.923880 1.000000 -0.382683
v 1.000000 -1.000000 0.000000
v 1.000000 1.000000 0.000000
v 0.923880 -1.000000 0.382683
v 0.923880 1.000000 0.382683
v 0.707107 -1.000000 0.707107
v 0.707107 1.000000 0.707107
v 0.382683 -1.000000 0.923880
v 0.382683 1.000000 0.923880
v 0.000000 -1.000000 1.000000
v 0.000000 1.000000 1.000000
v -0.382683 -1.000000 0.923880
v -0.382683 1.000000 0.923880
v -0.707107 -1.000000 0.707107
v -0.707107 1.000000 0.707107
v -0.923880 -1.000000 0.382683
v -0.923880 1.000000 0.382683
v -1.000000 -1.000000 0.000000
v -1.000000 1.000000 0.000000
v -0.923880 -1.000000 -0.382683
v -0.923880 1.000000 -0.382683
v -0.707107 -1.000000 -0.707107
v -0.707107 1.000000 -0.707107
v -0.382683 -1.000000 -0.923880
v -0.382683 1.000000 -0.923880
v -0.000000 -0.333333 -1.129161
v -0.000000 0.333333 -1.129161
v 0.432111 0.333333 -1.043209
v 0.432111 -0.333333 -1.043209
v 0.798437 0.333333 -0.798437
v 0.798437 -0.333333 -0.798437
v 1.043209 0.333333 -0.432111
v 1.043209 -0.333333 -0.432111
v 1.129161 0.333333 0.000000
v 1.129161 -0.333333 0.000000
v 1.043209 0.333333 0.432111
v 1.043209 -0.333333 0.432111
v 0.798437 0.333333 0.798437
v 0.798437 -0.333333 0.798437
v 0.432111 0.333333 1.043209
v 0.432111 -0.333333 1.043209
v -0.000000 0.333333 1.129161
v -0.000000 -0.333333 1.129161
v -0.432111 0.333333 1.043209
v -0.432111 -0.333333 1.043209
v -0.798437 0.333333 0.798437
v -0.798437 -0.333333 0.798437
v -1.043209 0.333333 0.432111
v -1.043209 -0.333333 0.432111
v -1.129161 0.333333 0.000000
v -1.129161 -0.333333 0.000000
v -1.043209 0.333333 -0.432111
v -1.043209 -0.333333 -0.432111
v -0.798437 0.333333 -0.798437
v -0.798437 -0.333333 -0.798437
v -0.432111 0.333333 -1.043209
v -0.432111 -0.333333 -1.043209
vn 0.1917 0.1867 -0.9635
vn 0.5458 0.1867 -0.8169
vn 0.8169 0.1867 -0.5458
vn 0.9635 0.1867 -0.1917
vn 0.9635 0.1867 0.1917
vn 0.8169 0.1867 0.5458
vn 0.5458 0.1867 0.8169
vn 0.1917 0.1867 0.9635
vn -0.1917 0.1867 0.9635
vn -0.5458 0.1867 0.8169
vn -0.8169 0.1867 0.5458
vn -0.9635 0.1867 0.1917
vn -0.9635 0.1867 -0.1917
vn -0.8169 0.1867 -0.5458
vn -0.0000 1.0000 -0.0000
vn -0.5458 0.1867 -0.8169
vn -0.1917 0.1867 -0.9635
vn -0.0000 -1.0000 -0.0000
vn -0.1917 -0.1867 -0.9635
vn -0.1951 -0.0000 -0.9808
vn -0.5458 -0.1867 -0.8169
vn -0.5556 -0.0000 -0.8315
vn -0.8169 -0.1867 -0.5458
vn -0.8315 -0.0000 -0.5556
vn -0.9635 -0.1867 -0.1917
vn -0.9808 -0.0000 -0.1951
vn -0.9635 -0.1867 0.1917
vn -0.9808 -0.0000 0.1951
vn -0.8169 -0.1867 0.5458
vn -0.8315 -0.0000 0.5556
vn -0.5458 -0.1867 0.8169
vn -0.5556 -0.0000 0.8315
vn -0.1917 -0.1867 0.9635
vn -0.1951 -0.0000 0.9808
vn 0.1917 -0.1867 0.9635
vn 0.1951 -0.0000 0.9808
vn 0.5458 -0.1867 0.8169
vn 0.5556 -0.0000 0.8315
vn 0.8169 -0.1867 0.5458
vn 0.8315 -0.0000 0.5556
vn 0.9635 -0.1867 0.1917
vn 0.9808 -0.0000 0.1951
vn 0.9635 -0.1867 -0.1917
vn 0.9808 -0.0000 -0.1951
vn 0.8169 -0.1867 -0.5458
vn 0.8315 -0.0000 -0.5556
vn 0.5458 -0.1867 -0.8169
vn 0.5556 -0.0000 -0.8315
vn 0.1917 -0.1867 -0.9635
vn 0.1951 -0.0000 -0.9808
vt 0.303298 0.337814
vt 0.064259 0.428822
vt 0.935741 0.428822
vt 0.935741 0.900719
vt 0.696702 0.337814
vt 0.064259 0.900719
vt 0.367698 0.325004
vt 0.881274 0.428822
vt 0.881274 0.900719
vt 0.761103 0.325004
vt 0.422294 0.288524
vt 0.826806 0.428822
vt 0.826806 0.900719
vt 0.815698 0.288524
vt 0.458773 0.233928
vt 0.772338 0.428822
vt 0.772338 0.900719
vt 0.852178 0.233928
vt 0.471583 0.169528
vt 0.717871 0.428822
vt 0.717871 0.900719
vt 0.864988 0.169528
vt 0.458773 0.105128
vt 0.663403 0.428822
vt 0.663403 0.900719
vt 0.852178 0.105128
vt 0.422294 0.050532
vt 0.608935 0.428822
vt 0.608935 0.900719
vt 0.815698 0.050532
vt 0.367698 0.014052
vt 0.554468 0.428822
vt 0.554468 0.900719
vt 0.761103 0.014052
vt 0.303298 0.001242
vt 0.500000 0.428822
vt 0.500000 0.900719
vt 0.696702 0.001242
vt 0.238897 0.014052
vt 0.445532 0.428822
vt 0.445532 0.900719
vt 0.632302 0.014052
vt 0.184302 0.050532
vt 0.391065 0.428822
vt 0.391065 0.900719
vt 0.577706 0.050532
vt 0.147822 0.105128
vt 0.336597 0.428822
vt 0.336597 0.900719
vt 0.541227 0.105128
vt 0.135012 0.169528
vt 0.282129 0.428822
vt 0.282129 0.900719
vt 0.528417 0.169528
vt 0.147822 0.233928
vt 0.227662 0.428822
vt 0.227662 0.900719
vt 0.541227 0.233928
vt 0.184302 0.288524
vt 0.173194 0.428822
vt 0.577706 0.288524
vt 0.173194 0.900719
vt 0.238897 0.325004
vt 0.118726 0.428822
vt 0.632302 0.325004
vt 0.118726 0.900719
vt 0.064259 0.586121
vt 0.935741 0.586121
vt 0.064259 0.743420
vt 0.935741 0.743420
vt 0.881274 0.743420
vt 0.881274 0.586121
vt 0.826806 0.743420
vt 0.826806 0.586121
vt 0.772338 0.743420
vt 0.772338 0.586121
vt 0.717871 0.743420
vt 0.717871 0.586121
vt 0.663403 0.743420
vt 0.663403 0.586121
vt 0.608935 0.743420
vt 0.608935 0.586121
vt 0.554468 0.743420
vt 0.554468 0.586121
vt 0.500000 0.743420
vt 0.500000 0.586121
vt 0.445532 0.743420
vt 0.445532 0.586121
vt 0.391065 0.743420
vt 0.391065 0.586121
vt 0.336597 0.743420
vt 0.336597 0.586121
vt 0.282129 0.743420
vt 0.282129 0.586121
vt 0.227662 0.743420
vt 0.227662 0.586121
vt 0.173194 0.743420
vt 0.173194 0.586121
vt 0.118726 0.743420
vt 0.118726 0.586121
s 0
usemtl BarrelMat
f 34/70/1 2/4/1 4/9/1 35/71/1
f 35/71/2 4/9/2 6/13/2 37/73/2
f 37/73/3 6/13/3 8/17/3 39/75/3
f 39/75/4 8/17/4 10/21/4 41/77/4
f 41/77/5 10/21/5 12/25/5 43/79/5
f 43/79/6 12/25/6 14/29/6 45/81/6
f 45/81/7 14/29/7 16/33/7 47/83/7
f 47/83/8 16/33/8 18/37/8 49/85/8
f 49/85/9 18/37/9 20/41/9 51/87/9
f 51/87/10 20/41/10 22/45/10 53/89/10
f 53/89/11 22/45/11 24/49/11 55/91/11
f 55/91/12 24/49/12 26/53/12 57/93/12
f 57/93/13 26/53/13 28/57/13 59/95/13
f 59/95/14 28/57/14 30/62/14 61/97/14
f 4/10/15 2/5/15 32/65/15 30/61/15 28/58/15 26/54/15 24/50/15 22/46/15 20/42/15 18/38/15 16/34/15 14/30/15 12/26/15 10/22/15 8/18/15 6/14/15
f 61/97/16 30/62/16 32/66/16 63/99/16
f 63/99/17 32/66/17 2/6/17 34/69/17
f 1/1/18 3/7/18 5/11/18 7/15/18 9/19/18 11/23/18 13/27/18 15/31/18 17/35/18 19/39/18 21/43/18 23/47/18 25/51/18 27/55/18 29/59/18 31/63/18
f 31/64/19 64/100/19 33/67/19 1/2/19
f 64/100/20 63/99/20 34/69/20 33/67/20
f 29/60/21 62/98/21 64/100/21 31/64/21
f 62/98/22 61/97/22 63/99/22 64/100/22
f 27/56/23 60/96/23 62/98/23 29/60/23
f 60/96/24 59/95/24 61/97/24 62/98/24
f 25/52/25 58/94/25 60/96/25 27/56/25
f 58/94/26 57/93/26 59/95/26 60/96/26
f 23/48/27 56/92/27 58/94/27 25/52/27
f 56/92/28 55/91/28 57/93/28 58/94/28
f 21/44/29 54/90/29 56/92/29 23/48/29
f 54/90/30 53/89/30 55/91/30 56/92/30
f 19/40/31 52/88/31 54/90/31 21/44/31
f 52/88/32 51/87/32 53/89/32 54/90/32
f 17/36/33 50/86/33 52/88/33 19/40/33
f 50/86/34 49/85/34 51/87/34 52/88/34
f 15/32/35 48/84/35 50/86/35 17/36/35
f 48/84/36 47/83/36 49/85/36 50/86/36
f 13/28/37 46/82/37 48/84/37 15/32/37
f 46/82/38 45/81/38 47/83/38 48/84/38
f 11/24/39 44/80/39 46/82/39 13/28/39
f 44/80/40 43/79/40 45/81/40 46/82/40
f 9/20/41 42/78/41 44/80/41 11/24/41
f 42/78/42 41/77/42 43/79/42 44/80/42
f 7/16/43 40/76/43 42/78/43 9/20/43
f 40/76/44 39/75/44 41/77/44 42/78/44
f 5/12/45 38/74/45 40/76/45 7/16/45
f 38/74/46 37/73/46 39/75/46 40/76/46
f 3/8/47 36/72/47 38/74/47 5/12/47
f 36/72/48 35/71/48 37/73/48 38/74/48
f 1/3/49 33/68/49 36/72/49 3/8/49
f 33/68/50 34/70/50 35/71/50 36/72/50
